{
    "asset" : {
        "generator" : "Khronos glTF Blender I/O v1.2.75",
        "version" : "2.0"
    },
    "scene" : 0,
    "scenes" : [
        {
            "name" : "Scene",
            "nodes" : [
                0
            ]
        }
    ],
    "nodes" : [
        {
            "mesh" : 0,
            "name" : "Rhino.1",
            "rotation" : [
                0.7071067094802856,
                0,
                0.7071068286895752,
                -6.181723932741079e-08
            ],
            "scale" : [
                0.06400000303983688,
                0.06400000303983688,
                0.06399999558925629
            ],
            "translation" : [
                -0.3729669749736786,
                12.756098747253418,
                23.06999969482422
            ]
        }
    ],
    "materials" : [
        {
            "doubleSided" : true,
            "emissiveFactor" : [
                0,
                0,
                0
            ],
            "name" : "Rhino.001",
            "pbrMetallicRoughness" : {
                "baseColorTexture" : {
                    "index" : 0,
                    "texCoord" : 0
                },
                "metallicFactor" : 0,
                "roughnessFactor" : 0.5
            }
        }
    ],
    "meshes" : [
        {
            "name" : "ID9",
            "primitives" : [
                {
                    "attributes" : {
                        "POSITION" : 0,
                        "NORMAL" : 1,
                        "TEXCOORD_0" : 2
                    },
                    "indices" : 3,
                    "material" : 0
                }
            ]
        }
    ],
    "textures" : [
        {
            "source" : 0
        }
    ],
    "images" : [
        {
            "bufferView" : 4,
            "mimeType" : "image/jpeg",
            "name" : "rhino Tex D"
        }
    ],
    "accessors" : [
        {
            "bufferView" : 0,
            "componentType" : 5126,
            "count" : 961,
            "max" : [
                129.3310089111328,
                331.426025390625,
                159.1020050048828
            ],
            "min" : [
                -773.1520385742188,
                -133.84800720214844,
                -157.48800659179688
            ],
            "type" : "VEC3"
        },
        {
            "bufferView" : 1,
            "componentType" : 5126,
            "count" : 961,
            "type" : "VEC3"
        },
        {
            "bufferView" : 2,
            "componentType" : 5126,
            "count" : 961,
            "type" : "VEC2"
        },
        {
            "bufferView" : 3,
            "componentType" : 5123,
            "count" : 2916,
            "type" : "SCALAR"
        }
    ],
    "bufferViews" : [
        {
            "buffer" : 0,
            "byteLength" : 11532,
            "byteOffset" : 0
        },
        {
            "buffer" : 0,
            "byteLength" : 11532,
            "byteOffset" : 11532
        },
        {
            "buffer" : 0,
            "byteLength" : 7688,
            "byteOffset" : 23064
        },
        {
            "buffer" : 0,
            "byteLength" : 5832,
            "byteOffset" : 30752
        },
        {
            "buffer" : 0,
            "byteLength" : 2576752,
            "byteOffset" : 36584
        }
    ],
    "buffers" : [
        {
            "byteLength" : 2613336,
            "uri" : "data:application/octet-stream;base64,"
        }
    ]
}
