{
    "asset" : {
        "generator" : "Khronos glTF Blender I/O v1.2.75",
        "version" : "2.0"
    },
    "extensionsUsed" : [
        "KHR_texture_transform"
    ],
    "extensionsRequired" : [
        "KHR_texture_transform"
    ],
    "scene" : 0,
    "scenes" : [
        {
            "name" : "Scene",
            "nodes" : [
                2
            ]
        }
    ],
    "nodes" : [
        {
            "mesh" : 0,
            "name" : "node9.002",
            "rotation" : [
                0,
                -1,
                0,
                -1.1165949445057777e-06
            ],
            "scale" : [
                5.819000244140625,
                5.819000244140625,
                5.819000244140625
            ],
            "translation" : [
                -1300,
                -276.0000305175781,
                570.0001220703125
            ]
        },
        {
            "children" : [
                0
            ],
            "name" : "node1",
            "rotation" : [
                0,
                -1,
                0,
                -1.6292068494294654e-07
            ]
        },
        {
            "children" : [
                1
            ],
            "name" : "node0",
            "translation" : [
                -980,
                30,
                330
            ]
        }
    ],
    "materials" : [
        {
            "doubleSided" : true,
            "emissiveFactor" : [
                0,
                0,
                0
            ],
            "name" : "Material-path_3.002",
            "normalTexture" : {
                "extensions" : {
                    "KHR_texture_transform" : {
                        "offset" : [
                            0,
                            -99
                        ],
                        "scale" : [
                            100,
                            100
                        ]
                    }
                },
                "index" : 0,
                "texCoord" : 0
            },
            "pbrMetallicRoughness" : {
                "baseColorTexture" : {
                    "extensions" : {
                        "KHR_texture_transform" : {
                            "offset" : [
                                0,
                                -99
                            ],
                            "scale" : [
                                100,
                                100
                            ]
                        }
                    },
                    "index" : 1,
                    "texCoord" : 0
                },
                "metallicFactor" : 0,
                "metallicRoughnessTexture" : {
                    "extensions" : {
                        "KHR_texture_transform" : {
                            "offset" : [
                                0,
                                -99
                            ],
                            "scale" : [
                                100,
                                100
                            ]
                        }
                    },
                    "index" : 2,
                    "texCoord" : 0
                }
            }
        }
    ],
    "meshes" : [
        {
            "name" : "node9.003",
            "primitives" : [
                {
                    "attributes" : {
                        "POSITION" : 0,
                        "NORMAL" : 1,
                        "TEXCOORD_0" : 2,
                        "TEXCOORD_1" : 3
                    },
                    "indices" : 4,
                    "material" : 0
                }
            ]
        }
    ],
    "textures" : [
        {
            "source" : 0
        },
        {
            "source" : 1
        },
        {
            "source" : 2
        }
    ],
    "images" : [
        {
            "bufferView" : 5,
            "mimeType" : "image/jpeg",
            "name" : "stone_tiles_02_nor_gl_1k"
        },
        {
            "bufferView" : 6,
            "mimeType" : "image/jpeg",
            "name" : "stone_tiles_02_diff_1kcopy"
        },
        {
            "bufferView" : 7,
            "mimeType" : "image/png",
            "name" : "rougnessidk"
        }
    ],
    "accessors" : [
        {
            "bufferView" : 0,
            "componentType" : 5126,
            "count" : 3040,
            "max" : [
                30.594013214111328,
                42.5352783203125,
                85.14950561523438
            ],
            "min" : [
                -60.23432922363281,
                39.413455963134766,
                2.861949920654297
            ],
            "type" : "VEC3"
        },
        {
            "bufferView" : 1,
            "componentType" : 5126,
            "count" : 3040,
            "type" : "VEC3"
        },
        {
            "bufferView" : 2,
            "componentType" : 5126,
            "count" : 3040,
            "type" : "VEC2"
        },
        {
            "bufferView" : 3,
            "componentType" : 5126,
            "count" : 3040,
            "type" : "VEC2"
        },
        {
            "bufferView" : 4,
            "componentType" : 5123,
            "count" : 12630,
            "type" : "SCALAR"
        }
    ],
    "bufferViews" : [
        {
            "buffer" : 0,
            "byteLength" : 36480,
            "byteOffset" : 0
        },
        {
            "buffer" : 0,
            "byteLength" : 36480,
            "byteOffset" : 36480
        },
        {
            "buffer" : 0,
            "byteLength" : 24320,
            "byteOffset" : 72960
        },
        {
            "buffer" : 0,
            "byteLength" : 24320,
            "byteOffset" : 97280
        },
        {
            "buffer" : 0,
            "byteLength" : 25260,
            "byteOffset" : 121600
        },
        {
            "buffer" : 0,
            "byteLength" : 873564,
            "byteOffset" : 146860
        },
        {
            "buffer" : 0,
            "byteLength" : 431662,
            "byteOffset" : 1020424
        },
        {
            "buffer" : 0,
            "byteLength" : 15926,
            "byteOffset" : 1452088
        }
    ],
    "buffers" : [
        {
            "byteLength" : 1468016,
            "uri" : "data:application/octet-stream;base64,"
        }
    ]
}
